<svg xmlns="http://www.w3.org/2000/svg" viewBox="75.9 165.1 768.6 318.4" width="768.6" height="318.4" aria-hidden="true">
<defs>
<clipPath id="clip_1">
<path transform="matrix(1,0,0,-1,0,583.92)" d="M0 583.92H871.92V0H0Z"/>
</clipPath>
</defs>
<g>
<g clip-path="url(#clip_1)">
<path transform="matrix(1,0,0,-1,759.5144,330.19129)" d="M0 0H-37.518L0 76.82ZM-146.073-32.157C-150.362-47.879-167.868-52.167-182.519-52.167H-208.958L-159.293 128.987H-127.136C-120.348 128.987-106.77 127.201-106.77 118.625-106.77 111.479-142.501-16.079-146.073-32.157M-294.349 0H-331.867L-294.349 76.82ZM-402.891 41.805H-455.056L-430.759 128.987H-379.309ZM2.974 165.074-99.609-33.749C-88.57 5.283-59.248 93.968-59.248 124.342-59.248 154.356-91.405 165.074-116.774 165.074H-197.719L-207.173 128.629-257.903-63.83V165.074H-291.377L-356.987 37.908C-348.709 65.899-329.285 132.971-329.285 143.994-329.285 159-343.934 165.074-357.512 165.074H-468.519L-534.735-88.254H-488.644L-464.703 5.717C-449.025 5.717-391.869-3.444-368.608 15.385L-422.264-88.611H-374.742L-349.017-36.087H-300.066V-88.611L-257.903-153.284V-88.254H-179.303C-156.655-88.254-130.937-80.091-114.905-63.395L-127.916-88.611H-80.394L-54.668-36.087H-5.717V-88.611L36.446-153.284V165.074Z" fill="#e9eef3"/>
<path transform="matrix(1,0,0,-1,225.4013,201.2201)" d="M0 0-8.589-31.442 33.212-52.504C37.506-34.657 49.289-2.482 49.289 15.019 49.289 29.302 34.665 36.099 22.151 36.103H22.141-41.255-87.543L-95.518 6.805C-96.945-.328-47.831-180.438-47.644-181.123H-100.153L-91.564-149.681-133.364-128.618C-137.659-146.465-149.441-178.641-149.441-196.142-149.441-210.428-134.81-217.225-122.294-217.225H-121.29-58.898-38.707C-22.985-217.225-8.693-210.08-4.048-194.001-2.622-187.938-49.964-.684-50.137 0Z" fill="#e9eef3"/>
<path transform="matrix(1,0,0,-1,822.7335,182.7804)" d="M0 0H2.025C4.389 0 6.301 .788 6.301 2.7 6.301 4.388 5.062 5.513 2.363 5.513 1.238 5.513 .451 5.4 0 5.288ZM-.111-10.463H-4.387V7.988C-2.699 8.325-.337 8.551 2.701 8.551 6.188 8.551 7.764 7.988 9.113 7.2 10.126 6.413 10.914 4.95 10.914 3.15 10.914 1.125 9.338-.45 7.088-1.125V-1.35C8.889-2.024 9.9-3.375 10.463-5.85 11.025-8.662 11.363-9.787 11.813-10.463H7.201C6.639-9.787 6.301-8.1 5.738-5.963 5.4-3.938 4.275-3.037 1.913-3.037H-.111ZM-11.475-.787C-11.475-9-5.399-15.525 2.926-15.525 11.025-15.525 16.988-9 16.988-.899 16.988 7.312 11.025 13.951 2.813 13.951-5.399 13.951-11.475 7.312-11.475-.787M21.714-.787C21.714-11.25 13.501-19.463 2.813-19.463-7.762-19.463-16.199-11.25-16.199-.787-16.199 9.45-7.762 17.663 2.813 17.663 13.501 17.663 21.714 9.45 21.714-.787" fill="#e9eef3"/>
</g>
</g>
</svg>